# xmcd
# Generated: 2017-06-22 18:13:09 UTC
# Last Editor: PeteMaud
#
# Track frame offsets:
#       150
#       15712
#       29777
#       42114
#       55446
#       70920
#       80627
#       92284
#
# Disc length: 1399 seconds
#
# Revision: 0
# Processed by: cddbd v1.5.2PL0 Copyright (c) Steve Scherf et al.
# Submitted via: cd-cat.pl V1.00
#
DISCID=64057508
DTITLE=Billy Lee and The Swamp Critters - Lorraine
DYEAR=2013
DGENRE=Cajun
TTITLE0=Earl
TTITLE1=Lorraine
TTITLE2=I'm Not Your Fool
TTITLE3=Hold On Me
TTITLE4=Engineer
TTITLE5=Fire
TTITLE6=Arlene
TTITLE7=Yeah You Right
EXTD='''The Swamp Critters:'''\n
EXTD=\n
EXTD=* Billy Lee: Accordion\n
EXTD=* Sandra Stram: Fiddle, Vocals, Rubboard\n
EXTD=* Bob Pruitt: Guitar\n
EXTD=* Burton Grant: Drums\n
EXTD=* Doug Pope: Bass\n
EXTD=\n
EXTD=Additional musicians:\n
EXTD=\n
EXTD=* Michael Minor: Drums (track 1]\n
EXTD=* David Mosby: Vocal (track 5]\n
EXTD=* April West: Trombone (track 8]\n
EXTD=\n
EXTD=Lorraine by Billy Lee and the Swamp Critters. Cajun, Zydeco, Blues, Texas
EXTD=Swing music.\n
EXTD=\n
EXTD=© 2013 Swamp Critters
EXTT0=
EXTT1=
EXTT2=
EXTT3=
EXTT4=
EXTT5=
EXTT6=
EXTT7=
PLAYORDER=
